<?xml version="1.0" encoding="UTF-8" standalone="no" ?>
<!DOCTYPE svg PUBLIC "-//W3C//DTD SVG 1.1//EN" "http://www.w3.org/Graphics/SVG/1.1/DTD/svg11.dtd">
<svg xmlns="http://www.w3.org/2000/svg" xmlns:xlink="http://www.w3.org/1999/xlink" version="1.1" width="1080" height="1080" viewBox="0 0 1080 1080" xml:space="preserve">
<desc>Created with Fabric.js 5.2.4</desc>
<defs>
</defs>
<g transform="matrix(1 0 0 1 540 540)" id="92bc5b19-644c-4228-8cc9-32b3b18bc651"  >
<rect style="stroke: none; stroke-width: 1; stroke-dasharray: none; stroke-linecap: butt; stroke-dashoffset: 0; stroke-linejoin: miter; stroke-miterlimit: 4; fill: rgb(255,255,255); fill-rule: nonzero; opacity: 1; visibility: hidden;" vector-effect="non-scaling-stroke"  x="-540" y="-540" rx="0" ry="0" width="1080" height="1080" />
</g>
<g transform="matrix(1 0 0 1 540 540)" id="806a615c-9a50-4bd6-ac13-de8b042baaaa"  >
</g>
<g transform="matrix(8.79 0 0 8.79 540 540)" id="Layer_1"  >
<path style="stroke: none; stroke-width: 1; stroke-dasharray: none; stroke-linecap: butt; stroke-dashoffset: 0; stroke-linejoin: miter; stroke-miterlimit: 4; fill: rgb(87,87,87); fill-rule: nonzero; opacity: 1;"  transform=" translate(-61.44, -61.44)" d="M 61.44 0 C 78.406 0 93.76599999999999 6.877 104.88499999999999 17.996 C 116.00399999999999 29.113999999999997 122.88099999999999 44.474999999999994 122.88099999999999 61.44 C 122.88099999999999 78.407 116.00399999999999 93.76599999999999 104.88499999999999 104.884 C 93.766 116.003 78.406 122.88 61.44 122.88 C 44.474 122.88 29.113999999999997 116.003 17.995999999999995 104.884 C 6.877 93.766 0 78.406 0 61.439 C 0 44.474000000000004 6.877 29.113 17.996 17.994999999999997 C 29.114 6.877 44.474 0 61.44 0 L 61.44 0 z M 80.16 37.369 C 81.461 36.067 83.572 36.067 84.87299999999999 37.369 C 86.17399999999999 38.67 86.17399999999999 40.78 84.87299999999999 42.082 L 65.512 61.444 L 84.873 80.806 C 86.174 82.107 86.174 84.217 84.873 85.51899999999999 C 83.572 86.82 81.461 86.82 80.16000000000001 85.51899999999999 L 60.798 66.157 L 41.436 85.52 C 40.135 86.821 38.024 86.821 36.723 85.52 C 35.422 84.21799999999999 35.422 82.10799999999999 36.723 80.807 L 56.086 61.44500000000001 L 36.723 42.082 C 35.422 40.78 35.422 38.67 36.723 37.369 C 38.024 36.067 40.135 36.067 41.436 37.369 L 60.799 56.730999999999995 L 80.16 37.369 L 80.16 37.369 z M 100.172 22.708 C 90.26 12.796 76.566 6.666 61.44 6.666 C 46.314 6.666 32.620999999999995 12.796 22.708999999999996 22.708000000000002 C 12.797 32.62 6.666 46.314 6.666 61.439 C 6.666 76.565 12.797 90.259 22.708000000000002 100.17099999999999 C 32.620000000000005 110.082 46.313 116.213 61.43900000000001 116.213 C 76.56500000000001 116.213 90.25900000000001 110.082 100.171 100.17099999999999 C 110.08300000000001 90.25899999999999 116.214 76.565 116.214 61.43899999999999 C 116.215 46.314 110.084 32.62 100.172 22.708 L 100.172 22.708 z" stroke-linecap="round" />
</g>
</svg>