<?xml version="1.0" encoding="UTF-8" standalone="no" ?>
<!DOCTYPE svg PUBLIC "-//W3C//DTD SVG 1.1//EN" "http://www.w3.org/Graphics/SVG/1.1/DTD/svg11.dtd">
<svg xmlns="http://www.w3.org/2000/svg" xmlns:xlink="http://www.w3.org/1999/xlink" version="1.1" width="1080" height="1080" viewBox="0 0 1080 1080" xml:space="preserve">
<desc>Created with Fabric.js 5.2.4</desc>
<defs>
</defs>
<g transform="matrix(1 0 0 1 540 540)" id="3ff82429-792f-4419-bb02-5df0af0b2501"  >
<rect style="stroke: none; stroke-width: 1; stroke-dasharray: none; stroke-linecap: butt; stroke-dashoffset: 0; stroke-linejoin: miter; stroke-miterlimit: 4; fill: rgb(255,255,255); fill-rule: nonzero; opacity: 1; visibility: hidden;" vector-effect="non-scaling-stroke"  x="-540" y="-540" rx="0" ry="0" width="1080" height="1080" />
</g>
<g transform="matrix(1 0 0 1 540 540)" id="aa74fa6b-b527-4624-a2b0-a123976a828f"  >
</g>
<g transform="matrix(8.79 0 0 8.79 540 540)" id="Layer_1"  >
<path style="stroke: none; stroke-width: 1; stroke-dasharray: none; stroke-linecap: butt; stroke-dashoffset: 0; stroke-linejoin: miter; stroke-miterlimit: 4; fill: rgb(168,168,168); fill-rule: nonzero; opacity: 1;"  transform=" translate(-61.44, -47.6)" d="M 68.37 62.24 C 68.71000000000001 62.18 69.05000000000001 62.160000000000004 69.37 62.160000000000004 C 69.52000000000001 62.160000000000004 69.67 62.17 69.82000000000001 62.190000000000005 L 69.82000000000001 50.66 L 57.36000000000001 54.239999999999995 L 57.36000000000001 68.50999999999999 C 57.36000000000001 68.55999999999999 57.36000000000001 68.71999999999998 57.370000000000005 68.74999999999999 C 57.370000000000005 69.84999999999998 56.81 70.92999999999999 55.89000000000001 71.79999999999998 C 55.00000000000001 72.63999999999999 53.78000000000001 73.27999999999999 52.43000000000001 73.50999999999998 C 52.06000000000001 73.56999999999998 51.70000000000001 73.60999999999997 51.35000000000001 73.60999999999997 C 50.34000000000001 73.60999999999997 49.43000000000001 73.34999999999997 48.74000000000001 72.87999999999997 C 48.02000000000001 72.39999999999996 47.540000000000006 71.70999999999997 47.39000000000001 70.86999999999996 C 47.36000000000001 70.69999999999996 47.34000000000001 70.51999999999997 47.34000000000001 70.34999999999997 C 47.34000000000001 69.24999999999997 47.90000000000001 68.16999999999996 48.82000000000001 67.30999999999996 C 49.71000000000001 66.46999999999996 50.93000000000001 65.82999999999996 52.28000000000001 65.59999999999997 C 52.78000000000001 65.50999999999996 53.27000000000001 65.48999999999997 53.73000000000001 65.51999999999997 C 54.01000000000001 65.53999999999996 54.27000000000001 65.57999999999997 54.52000000000001 65.62999999999997 L 54.52000000000001 47.819999999999965 L 55.00000000000001 47.819999999999965 L 72.64000000000001 43.779999999999966 L 72.64000000000001 64.46999999999997 L 72.67000000000002 64.68999999999997 C 72.68000000000002 64.77999999999997 72.68000000000002 64.86999999999998 72.68000000000002 64.94999999999997 C 72.68000000000002 65.88999999999997 72.20000000000002 66.80999999999997 71.42000000000002 67.53999999999998 C 70.67000000000002 68.24999999999997 69.63000000000001 68.78999999999998 68.49000000000001 68.98999999999998 C 68.18 69.03999999999998 67.87 69.06999999999998 67.58000000000001 69.06999999999998 C 66.72000000000001 69.06999999999998 65.95000000000002 68.84999999999998 65.36000000000001 68.44999999999997 C 64.75000000000001 68.03999999999998 64.33000000000001 67.44999999999997 64.21000000000001 66.72999999999998 C 64.18 66.57999999999997 64.17 66.42999999999998 64.17 66.27999999999997 C 64.17 65.33999999999997 64.65 64.41999999999997 65.43 63.68999999999997 C 66.2 62.97 67.23 62.43 68.37 62.24 L 68.37 62.24 z M 61.44 31.38 C 68.88 31.38 75.62 34.4 80.5 39.269999999999996 C 85.38 44.15 88.39 50.879999999999995 88.39 58.33 C 88.39 65.77 85.37 72.50999999999999 80.5 77.38 C 75.62 82.25999999999999 68.89 85.27 61.44 85.27 C 54 85.27 47.26 82.25 42.39 77.38 C 37.51 72.5 34.5 65.77 34.5 58.33 C 34.5 50.89 37.52 44.15 42.39 39.269999999999996 C 47.26 34.4 54 31.38 61.44 31.38 L 61.44 31.38 z M 77.15 42.61 C 73.13000000000001 38.59 67.57000000000001 36.1 61.440000000000005 36.1 C 55.300000000000004 36.1 49.75000000000001 38.59 45.730000000000004 42.61 C 41.71000000000001 46.629999999999995 39.220000000000006 52.19 39.220000000000006 58.32 C 39.220000000000006 64.46 41.71000000000001 70.01 45.730000000000004 74.03 C 49.75 78.05 55.31 80.54 61.440000000000005 80.54 C 67.58 80.54 73.13000000000001 78.05000000000001 77.15 74.03 C 81.17 70.01 83.66000000000001 64.45 83.66000000000001 58.32 C 83.66 52.19 81.18 46.63 77.15 42.61 L 77.15 42.61 z M 2.48 20.74 L 6.98 20.74 L 6.98 10.879999999999999 C 6.98 9.509999999999998 8.09 8.399999999999999 9.46 8.399999999999999 L 13.870000000000001 8.399999999999999 L 13.870000000000001 2.48 C 13.870000000000001 1.1099999999999999 14.98 0 16.35 0 L 56.61 0 C 57.98 0 59.089999999999996 1.11 59.089999999999996 2.48 L 59.089999999999996 8.4 L 113.38999999999999 8.4 C 114.75999999999999 8.4 115.86999999999999 9.51 115.86999999999999 10.88 L 115.86999999999999 20.740000000000002 L 120.39999999999999 20.740000000000002 C 121.77 20.740000000000002 122.88 21.85 122.88 23.220000000000002 C 122.88 23.400000000000002 122.86 23.580000000000002 122.82 23.740000000000002 L 114.13999999999999 87.55000000000001 C 113.85999999999999 89.63000000000001 112.94999999999999 91.56000000000002 111.54999999999998 92.96000000000001 C 110.16999999999999 94.34 108.33999999999999 95.2 106.18999999999998 95.2 L 14.7 95.2 C 12.54 95.2 10.669999999999998 94.33 9.27 92.94 C 7.859999999999999 91.53 6.959999999999999 89.59 6.7299999999999995 87.48 L 0.009999999999999787 23.480000000000004 C -0.13000000000000023 22.120000000000005 0.8599999999999998 20.900000000000006 2.2199999999999998 20.760000000000005 C 2.31 20.75 2.39 20.75 2.48 20.74 L 2.48 20.74 L 2.48 20.74 L 2.48 20.74 z M 9.46 25.71 L 5.23 25.71 L 11.670000000000002 86.98 C 11.770000000000001 87.96000000000001 12.170000000000002 88.83 12.770000000000001 89.44 C 13.270000000000001 89.94 13.940000000000001 90.25 14.700000000000001 90.25 L 106.2 90.25 C 106.95 90.25 107.58 89.95 108.07000000000001 89.46 C 108.69000000000001 88.83999999999999 109.10000000000001 87.92999999999999 109.24000000000001 86.91 L 117.56 25.72 L 9.46 25.71 L 9.46 25.71 L 9.46 25.71 z M 11.94 13.37 L 11.94 20.73 L 110.91 19.68 L 110.91 13.370000000000001 L 56.61 13.370000000000001 C 55.24 13.370000000000001 54.13 12.260000000000002 54.13 10.89 L 54.13 4.97 L 18.830000000000005 4.97 L 18.830000000000005 10.89 C 18.830000000000005 12.260000000000002 17.720000000000006 13.370000000000001 16.350000000000005 13.370000000000001 L 11.94 13.37 L 11.94 13.37 L 11.94 13.37 z" stroke-linecap="round" />
</g>
</svg>